<svg width="37" height="33" viewBox="0 0 37 33" fill="none" xmlns="http://www.w3.org/2000/svg">
<path fill-rule="evenodd" clip-rule="evenodd" d="M26.1605 15.4664C26.0861 15.2595 26.0036 15.0302 25.8784 14.7279V14.7224C24.6192 11.7184 21.6549 9.75614 18.362 9.75614C15.069 9.75614 12.1047 11.7129 10.8455 14.7224C10.7183 15.0272 10.6352 15.2587 10.5597 15.4688C10.4633 15.7373 10.3795 15.9706 10.2326 16.2768C10.0208 16.7232 9.7701 17.0484 9.43021 17.291C8.7393 17.787 7.85894 17.8036 6.80028 17.8036H0.364746C0.364746 13.0853 2.25919 8.55453 5.63576 5.2143C9.01232 1.87406 13.5868 0 18.362 0C23.1371 0 27.7172 1.87406 31.0882 5.21981C34.4647 8.56005 36.3592 13.0854 36.3592 17.8091H29.9236C28.865 17.8091 27.9846 17.7925 27.2937 17.2965C26.9538 17.0539 26.7031 16.7232 26.4913 16.2823C26.3426 15.9722 26.2585 15.7387 26.1605 15.4664ZM27.7506 33C30.648 31.2472 32.9826 28.7227 34.4926 25.7132H34.4814L28.0738 19.3745C27.4386 18.7406 26.9817 18.3107 26.3186 18.0626C25.6611 17.8146 24.9424 17.8091 23.9116 17.8091H12.8124C11.7816 17.8091 11.0684 17.8146 10.4053 18.0626C9.74224 18.3107 9.29092 18.7406 8.65015 19.3745L2.24247 25.7132C3.75246 28.7227 6.08708 31.2472 8.98447 33L16.2112 25.851C17.0693 25.0077 17.6488 24.484 18.3675 24.484C19.0863 24.484 19.6714 25.0077 20.5239 25.851C21.3261 26.6447 22.1284 27.4389 22.9309 28.2334C24.5361 29.8225 26.1421 31.4125 27.7506 33Z" fill="white"/>
</svg>
